# xmcd
#
# Track frame offsets: 
#        150
#        12298
#        24140
#        36059
#        49493
#        60743
#        72011
#        84403
#        97078
#        109192
#        120322
#        130477
#
# Disc length: 1901 seconds
#
# Revision: 5
# Processed by: cddbd v1.5.2PL0 Copyright (c) Steve Scherf et al.
# Submitted via: ExactAudioCopy v1.3
#
DISCID=99076b0c
DTITLE=Flatt and Scruggs - The Best of Flatt and Scruggs
DYEAR=2001
DGENRE=Bluegrass
TTITLE0=Foggy Mountain Breakdown
TTITLE1=My Cabin in Caroline
TTITLE2=Roll in My Sweet Baby's Arms
TTITLE3=Baby Blue Eyes
TTITLE4=Old Salty Dog Blues
TTITLE5=I'll Just Pretend
TTITLE6=Pike County Breakdown
TTITLE7=Doin' My Time
TTITLE8=God Loves His Children
TTITLE9=Farewell Blues
TTITLE10=Take Me in a Lifeboat
TTITLE11=We'll Meet Again Sweetheart
EXTD=YEAR: 2001
EXTT0=
EXTT1=
EXTT2=
EXTT3=
EXTT4=
EXTT5=
EXTT6=
EXTT7=
EXTT8=
EXTT9=
EXTT10=
EXTT11=
PLAYORDER=
